<svg xmlns="http://www.w3.org/2000/svg" viewBox="0 0 900 520" role="img" aria-labelledby="title desc">
  <title id="title">Toda grande colheita começa com a primeira reserva</title>
  <desc id="desc">Uma jovem planta cresce sobre moedas douradas em uma paisagem verde.</desc>
  <defs>
    <linearGradient id="sky" x1="0" y1="0" x2="1" y2="1">
      <stop stop-color="#09271c"/><stop offset=".6" stop-color="#174d36"/><stop offset="1" stop-color="#2e7655"/>
    </linearGradient>
    <linearGradient id="coin" x1="0" y1="0" x2="1" y2="1">
      <stop stop-color="#f7e4a6"/><stop offset=".48" stop-color="#d5a84d"/><stop offset="1" stop-color="#966519"/>
    </linearGradient>
    <linearGradient id="leaf" x1="0" y1="0" x2="1" y2="1">
      <stop stop-color="#a9d39d"/><stop offset="1" stop-color="#4e9769"/>
    </linearGradient>
    <radialGradient id="light">
      <stop stop-color="#f4d986" stop-opacity=".34"/><stop offset="1" stop-color="#f4d986" stop-opacity="0"/>
    </radialGradient>
    <filter id="shadow"><feDropShadow dx="0" dy="14" stdDeviation="15" flood-color="#061710" flood-opacity=".35"/></filter>
  </defs>
  <rect width="900" height="520" rx="28" fill="url(#sky)"/>
  <circle cx="710" cy="82" r="240" fill="url(#light)"/>
  <g opacity=".09" fill="none" stroke="#f5dc92">
    <circle cx="714" cy="74" r="112"/><circle cx="714" cy="74" r="152"/><circle cx="714" cy="74" r="194"/>
  </g>
  <path d="M0 414C160 347 287 385 423 349c185-49 278-4 477-74v245H0Z" fill="#0b2c20"/>
  <path d="M0 457c190-60 342-32 507-76 153-41 249-10 393-59v198H0Z" fill="#123d2c"/>
  <g transform="translate(450 375)" filter="url(#shadow)">
    <ellipse cy="69" rx="189" ry="32" fill="#071e16" opacity=".45"/>
    <g fill="url(#coin)" stroke="#f4d78a" stroke-opacity=".45" stroke-width="2">
      <ellipse cy="43" rx="172" ry="38"/>
      <path d="M278 43v24c0 21-77 38-172 38S-66 88-66 67V43c0 21 77 38 172 38s172-17 172-38Z" transform="translate(-106)"/>
      <ellipse cy="7" rx="140" ry="32"/>
      <path d="M246 7v23c0 18-63 32-140 32S-34 48-34 30V7c0 18 63 32 140 32S246 25 246 7Z" transform="translate(-106)"/>
      <ellipse cy="-23" rx="103" ry="26"/>
    </g>
  </g>
  <g transform="translate(450 328)">
    <path d="M0 0C-5-63 3-129 28-197" fill="none" stroke="#b6d9ad" stroke-width="13" stroke-linecap="round"/>
    <path d="M12-101C-57-101-103-139-101-196c68-6 111 34 113 95Z" fill="url(#leaf)"/>
    <path d="M19-142c19-70 67-104 129-86-9 68-54 101-129 86Z" fill="#8fc486"/>
    <path d="M0-44c-49-4-80-31-79-71 48-4 79 24 79 71Z" fill="#3f865d"/>
    <g fill="none" stroke="#d9ebd3" stroke-width="3" stroke-linecap="round" opacity=".55">
      <path d="M3-107c-28-28-57-52-92-75"/><path d="M24-148c38-32 70-53 111-68"/>
    </g>
  </g>
</svg>
